# xmcd
#
# Track frame offsets:
#	150
#	27063
#	52405
#	74393
#	89205
#	119761
#	139609
#	162051
#	183394
#	200386
#	223414
#
# Disc length: 3324 seconds
#
# Revision: 0
# Processed by: cddbd v1.5.2PL0 Copyright (c) Steve Scherf et al.
# Submitted via: EZCDAudioConverter 2.5.0.1
#
DISCID=af0cfa0b
DTITLE=Kris Pohlmann - Taylor Road
DYEAR=2015
DGENRE=Blues Rock
TTITLE0=Used To Be
TTITLE1=Taylor Road
TTITLE2=One Good Reason
TTITLE3=Borrowed Time
TTITLE4=Look The Other Way
TTITLE5=Ain't Crying For Yesterday
TTITLE6=Taking Back What's Mine
TTITLE7=The Silence
TTITLE8=Slow Motion
TTITLE9=Tarantula
TTITLE10=The Long Goodbye
EXTD=
EXTT0=
EXTT1=
EXTT2=
EXTT3=
EXTT4=
EXTT5=
EXTT6=
EXTT7=
EXTT8=
EXTT9=
EXTT10=
PLAYORDER=
